<?xml version="1.0" encoding="UTF-8"?>
<svg id="Layer_1" data-name="Layer 1" xmlns="http://www.w3.org/2000/svg" viewBox="0 0 2466.384 2549.599">
  <path d="M286.794,595.763c32.64-71.14,73.09-137.19,120.77-198.82,91.57-118.36,203.78-212.58,336.88-281.12C946.854,11.593,1160.814-22.027,1385.644,13.903c7.72,1.23,15.23,3.82,26.31,6.66-245.83-1.99-421.8,80.26-614.27,228.25-193.89,149.08-319.87,346.19-373.01,581.78-60.61,268.76-19.15,527.72,126.75,765.11,145.68,237.03,313.25,376.66,577.03,449.06-12.1-1.45-27.98-3.13-43.79-5.3-16.26-2.23-32.51-4.66-48.68-7.47-402.89-70.12-730.04-383.74-818.44-784.82-6.56-29.78-13.97-59.7-16.63-89.94-4.89-55.49-11.89-111.62-8.17-166.83,4.73-70.07,10.24-131.1,29.41-209.18.62-2.52,34.61-120.01,64.64-185.46Z" fill="#fff"/>
  <path d="M718.664,1669.043c-121.02-166.2-187.66-351.12-194.96-557.4-3.63-102.54,8.09-202.77,36.69-300.97,12.26-42.09,24.39-84.74,42.33-124.54,51.8-114.91,120.8-218.61,210.98-307.57,67.8-66.88,143.43-122.98,227.22-168.21,151.54-81.8,313.71-121.49,485.52-118.23,220.9,4.19,419.38,75.19,593.51,210.87,130.54,101.72,228.42,229.82,293.19,383.08-9.75-11.29-19.19-22.88-29.31-33.83-255.96-276.87-569.51-383.5-941.07-317.58-112.76,20-215.69,65.53-314.5,122.2-81.25,46.6-150.46,107.4-214.81,174.49-76.41,79.66-134.42,171.61-179.21,271.94-44.62,99.95-71.85,204.71-81.67,313.87-13.48,149.7,7.05,294.77,59.18,435.55,1.98,5.35,4.4,10.54,6.61,15.8l.3.53Z" fill="#fff"/>
  <polygon points="884.034 1698.663 885.074 1698.803 884.414 1699.133 884.034 1698.663" fill="#fff"/>
  <path d="M2466.384,1763.323c-212.79,455.39-562.12,733.7-1067.32,779.91-476.2,43.56-864.93-137.11-1152.64-521.31C53.384,1764.143-21.576,1470.233,5.274,1150.803c17.24-205.12,83.2-394.94,196.37-573.51-248,666.23,74.98,1322.05,594.67,1595.63,289.56,152.44,595.28,191.22,912.97,112.97,317.78-78.27,567.14-258.45,757.1-522.57Z" fill="#fff"/>
</svg>