<?xml version="1.0" encoding="UTF-8"?>
<svg id="Layer_1" xmlns="http://www.w3.org/2000/svg" version="1.1" viewBox="0 0 923.08 313.03">
  <!-- Generator: Adobe Illustrator 30.1.0, SVG Export Plug-In . SVG Version: 2.1.1 Build 136)  -->
  <defs>
    <style>
      .st0 {
        fill: #fff;
      }

      .st1 {
        fill: #f38020;
      }

      .st2 {
        fill: #faae40;
      }

      .st3 {
        fill: #404041;
      }
    </style>
  </defs>
  <path class="st3" d="M101.19,237.82h20.47v55.78h35.57v17.85h-56.04v-73.63ZM178.37,274.84v-.26c0-21.13,17.06-38.32,39.77-38.32s39.51,16.93,39.51,38.06v.26c0,21.13-17.06,38.32-39.77,38.32s-39.51-16.93-39.51-38.06ZM236.91,274.84v-.26c0-10.63-7.61-19.82-18.9-19.82s-18.64,9.06-18.64,19.69v.26c0,10.63,7.61,19.82,18.77,19.82s18.77-9.06,18.77-19.69h0ZM282.71,279.17v-41.34h20.74v40.95c0,10.63,5.38,15.62,13.52,15.62s13.52-4.86,13.52-15.09v-41.47h20.74v40.82c0,23.76-13.52,34.12-34.52,34.12s-33.99-10.5-33.99-33.6h0ZM382.46,237.82h28.35c26.25,0,41.61,15.09,41.61,36.36v.26c0,21.26-15.49,37.01-42,37.01h-27.96v-73.63ZM411.2,293.34c12.21,0,20.34-6.69,20.34-18.64v-.26c0-11.81-8.14-18.64-20.34-18.64h-8.27v37.41h8.27v.13ZM482.08,237.82h58.93v17.85h-38.59v12.6h34.91v16.93h-34.91v26.25h-20.34v-73.63ZM569.36,237.82h20.34v55.78h35.7v17.85h-56.04v-73.63ZM678.69,237.3h19.69l31.37,74.16h-21.92l-5.38-13.12h-28.35l-5.25,13.12h-21.39l31.24-74.16ZM696.67,282.45l-8.14-20.87-8.27,20.87h16.41ZM756,237.82h34.78c11.29,0,19.03,2.89,24.02,8.01,4.33,4.2,6.56,9.84,6.56,17.19v.26c0,11.29-6.04,18.77-15.09,22.57l17.59,25.72h-23.62l-14.83-22.31h-8.92v22.31h-20.47v-73.76ZM789.86,273.13c6.96,0,10.89-3.41,10.89-8.66v-.26c0-5.77-4.2-8.66-11.02-8.66h-13.39v17.59h13.52ZM850.76,237.82h59.19v17.32h-38.98v11.16h35.31v16.14h-35.31v11.68h39.51v17.32h-59.72v-73.63ZM56.57,283.5c-2.89,6.43-8.92,11.02-16.8,11.02-11.16,0-18.77-9.32-18.77-19.82v-.26c0-10.63,7.48-19.69,18.64-19.69,8.4,0,14.83,5.12,17.46,12.21h21.52c-3.41-17.59-18.9-30.58-38.85-30.58-22.71,0-39.77,17.19-39.77,38.32v.26c0,21.13,16.8,38.06,39.51,38.06,19.42,0,34.65-12.6,38.59-29.4l-21.52-.13Z"/>
  <path class="st0" d="M885.8,120.49l-56.31-32.29-9.71-4.2-230.34,1.57v116.94h296.36v-82.03Z"/>
  <path class="st1" d="M783.3,191.62c2.76-9.45,1.71-18.11-2.89-24.54-4.2-5.91-11.29-9.32-19.82-9.71l-161.57-2.1c-1.05,0-1.97-.52-2.49-1.31s-.66-1.84-.39-2.89c.52-1.57,2.1-2.76,3.81-2.89l163.01-2.1c19.29-.92,40.29-16.54,47.64-35.7l9.32-24.28c.39-1.05.53-2.1.26-3.15C809.68,35.44,767.28,0,716.62,0c-46.72,0-86.36,30.19-100.54,72.06-9.19-6.82-20.87-10.5-33.47-9.32-22.44,2.23-40.42,20.21-42.66,42.66-.52,5.77-.13,11.42,1.18,16.67-36.62,1.05-65.89,30.97-65.89,67.86,0,3.28.26,6.56.66,9.84.26,1.57,1.58,2.76,3.15,2.76h298.2c1.71,0,3.28-1.18,3.81-2.89l2.23-8.01Z"/>
  <path class="st2" d="M834.75,88.07c-1.44,0-3.02,0-4.46.13-1.05,0-1.97.79-2.36,1.84l-6.3,21.92c-2.76,9.45-1.71,18.11,2.89,24.54,4.2,5.91,11.29,9.32,19.82,9.71l34.39,2.1c1.05,0,1.97.52,2.49,1.31s.66,1.97.39,2.89c-.53,1.57-2.1,2.76-3.81,2.89l-35.83,2.1c-19.42.92-40.29,16.54-47.64,35.7l-2.62,6.69c-.53,1.31.39,2.62,1.84,2.62h123.11c1.44,0,2.76-.92,3.15-2.36,2.1-7.61,3.28-15.62,3.28-23.89,0-48.56-39.64-88.2-88.33-88.2"/>
</svg>