<?xml version="1.0" encoding="UTF-8"?>
<svg id="Layer_1" xmlns="http://www.w3.org/2000/svg" version="1.1" viewBox="0 0 923.08 303.86">
  <!-- Generator: Adobe Illustrator 30.1.0, SVG Export Plug-In . SVG Version: 2.1.1 Build 136)  -->
  <defs>
    <style>
      .st0 {
        fill: #ea4335;
      }

      .st1 {
        fill: #4285f4;
      }

      .st2 {
        fill: #34a853;
      }

      .st3 {
        fill: #fbbc05;
      }
    </style>
  </defs>
  <path class="st0" d="M395.02,159.91c0,43.72-34.2,75.93-76.17,75.93s-76.17-32.21-76.17-75.93,34.2-75.93,76.17-75.93,76.17,31.91,76.17,75.93ZM361.68,159.91c0-27.32-19.82-46.01-42.83-46.01s-42.83,18.69-42.83,46.01,19.82,46.01,42.83,46.01,42.83-19,42.83-46.01Z"/>
  <path class="st3" d="M559.34,159.91c0,43.72-34.2,75.93-76.17,75.93s-76.17-32.21-76.17-75.93,34.2-75.93,76.17-75.93,76.17,31.91,76.17,75.93ZM526,159.91c0-27.32-19.82-46.01-42.83-46.01s-42.83,18.69-42.83,46.01,19.82,46.01,42.83,46.01,42.83-19,42.83-46.01Z"/>
  <path class="st1" d="M716.82,88.56v136.32c0,56.07-33.07,78.98-72.16,78.98-36.8,0-58.95-24.61-67.3-44.74l29.03-12.08c5.17,12.36,17.84,26.94,38.24,26.94,25.02,0,40.53-15.44,40.53-44.5v-10.92h-1.16c-7.46,9.21-21.84,17.25-39.98,17.25-37.97,0-72.75-33.07-72.75-75.62s34.78-76.2,72.75-76.2c18.11,0,32.49,8.04,39.98,16.98h1.16v-12.36h31.67v-.03ZM687.51,160.18c0-26.74-17.84-46.28-40.53-46.28s-42.28,19.55-42.28,46.28,19.27,45.74,42.28,45.74,40.53-19.27,40.53-45.74Z"/>
  <path class="st2" d="M769.03,8.66v222.52h-32.52V8.66h32.52Z"/>
  <path class="st0" d="M895.76,184.9l25.88,17.25c-8.35,12.36-28.48,33.65-63.26,33.65-43.13,0-75.35-33.34-75.35-75.93,0-45.15,32.49-75.93,71.62-75.93s58.68,31.36,64.98,48.3l3.46,8.63-101.5,42.04c7.77,15.23,19.86,23.01,36.8,23.01s28.76-8.35,37.38-21.02h0ZM816.1,157.58l67.85-28.17c-3.73-9.48-14.96-16.09-28.17-16.09-16.95,0-40.53,14.96-39.68,44.26Z"/>
  <path class="st1" d="M119.58,140.15v-32.21h108.55c1.06,5.61,1.61,12.26,1.61,19.44,0,24.17-6.61,54.05-27.9,75.35-20.71,21.57-47.17,33.07-82.23,33.07-64.98,0-119.61-52.93-119.61-117.9S54.64,0,119.61,0c35.95,0,61.55,14.1,80.79,32.49l-22.73,22.73c-13.8-12.94-32.49-23.01-58.09-23.01-47.45,0-84.56,38.24-84.56,85.69s37.11,85.69,84.56,85.69c30.78,0,48.3-12.36,59.53-23.59,9.11-9.11,15.1-22.11,17.46-39.88l-76.99.03Z"/>
</svg>